<?xml version="1.0" encoding="UTF-8" standalone="no"?>
<!-- Created with Inkscape (http://www.inkscape.org/) -->

<svg
   width="10.862mm"
   height="9.5649996mm"
   viewBox="0 0 10.862001 9.5649996"
   version="1.1"
   id="svg239145"
   xmlns="http://www.w3.org/2000/svg"
   xmlns:svg="http://www.w3.org/2000/svg">
  <defs
     id="defs239142" />
  <path
     id="path143596-1-0-6-1-3-5-0-4-1-9-7-4-7"
     style="fill:#4f46e5;fill-opacity:1;stroke:none;stroke-width:0.269012;stroke-linecap:round;stroke-linejoin:round;stroke-miterlimit:4;stroke-dasharray:none;stroke-opacity:1;paint-order:fill markers stroke"
     d="M 3.1967,0.0092 C 1.4312,0.0092 1e-4,1.4403 0,3.2057 0.01,3.6569 0.076,4.122 0.2922,4.5121 1.4575,6.6117 3.6916,8.1644 5.4265,9.565 6.0025,9.1103 6.6316,8.6319 7.2578,8.1239 L 5.8542,6.7223 H 5.0031 A 0.92795142,0.92795142 0 0 1 4.1267,7.3493 0.92795142,0.92795142 0 0 1 3.1988,6.4214 0.92795142,0.92795142 0 0 1 4.1267,5.4935 0.92795142,0.92795142 0 0 1 4.9386,5.9739 l 1.0686,-0.01 v 1e-4 A 0.37448725,0.37448725 0 0 1 6.273,6.0734 L 7.8371,7.6353 C 7.9678,7.5236 8.0977,7.4106 8.226,7.2955 L 6.006,5.074 4.7093,5.084 c -0.098,0 -0.1927,-0.038 -0.263,-0.1065 L 3.2179,3.7779 c -0.01,-0.01 -0.01,-0.01 -0.01,-0.011 A 0.92795142,0.92795142 0 0 1 2.9159,3.8159 0.92795142,0.92795142 0 0 1 1.988,2.888 0.92795142,0.92795142 0 0 1 2.9159,1.96 a 0.92795142,0.92795142 0 0 1 0.928,0.928 0.92795142,0.92795142 0 0 1 -0.08,0.3757 l 1.0969,1.0715 1.2991,-0.01 c 0.1,0 0.1953,0.039 0.2657,0.1095 L 8.7721,6.7823 C 8.8851,6.6717 8.9979,6.561 9.1068,6.4471 L 7.6349,4.9729 A 0.37448725,0.37448725 0 0 1 7.5255,4.7072 l 0.01,-0.9719 A 0.92795142,0.92795142 0 0 1 7.0631,2.9284 0.92795142,0.92795142 0 0 1 7.991,2.0005 0.92795142,0.92795142 0 0 1 8.919,2.9284 0.92795142,0.92795142 0 0 1 8.2836,3.8074 V 4.5536 L 9.6171,5.8892 C 9.9837,5.4533 10.3122,4.9929 10.5817,4.503 10.7964,4.1127 10.8616,3.6469 10.862,3.1966 10.862,1.4311 9.4308,0 7.6653,0 6.8327,0 6.0332,0.3262 5.4369,0.9074 4.8399,0.3256 4.0393,0 3.2057,0 Z M 2.9162,2.4725 A 0.41910852,0.41910852 0 0 0 2.4972,2.8916 0.41910852,0.41910852 0 0 0 2.9162,3.3107 0.41910852,0.41910852 0 0 0 3.3354,2.8916 0.41910852,0.41910852 0 0 0 2.9162,2.4725 Z m 5.0685,0.046 A 0.41910852,0.41910852 0 0 0 7.5656,2.9375 0.41910852,0.41910852 0 0 0 7.9847,3.3567 0.41910852,0.41910852 0 0 0 8.4039,2.9375 0.41910852,0.41910852 0 0 0 7.9847,2.5185 Z M 4.1267,6.0053 A 0.41910852,0.41910852 0 0 0 3.7076,6.4243 0.41910852,0.41910852 0 0 0 4.1267,6.8436 0.41910852,0.41910852 0 0 0 4.5459,6.4243 0.41910852,0.41910852 0 0 0 4.1267,6.0053 Z" />
  <path
     id="path143596-1-0-6-1-3-5-0-4-1-9-7-4"
     style="fill:#ffffff;fill-opacity:1;stroke:none;stroke-width:1.01674;stroke-linecap:round;stroke-linejoin:round;stroke-miterlimit:4;stroke-dasharray:none;stroke-opacity:1;paint-order:fill markers stroke"
     d="M 11.021484,7.4082031 C 9.0840366,7.4078749 7.5133432,8.9785686 7.5136719,10.916016 c 7.504e-4,1.936684 1.5711277,3.506187 3.5078121,3.505859 0.375398,-0.0024 0.747978,-0.06504 1.103516,-0.185547 0,0.0038 -6.86e-4,0.0052 0.03711,0.04297 l 4.642579,4.533203 c 0.2657,0.258898 0.623746,0.402344 0.99414,0.402344 l 4.900391,-0.03711 8.382812,8.388672 c 0.703118,-0.63094 1.391532,-1.278021 2.066407,-1.9375 L 24.285156,16.761719 C 24.019078,16.495262 23.659203,16.347656 23.28125,16.347656 l -4.910156,0.03711 -4.144532,-4.048828 c 0.198172,-0.447157 0.300626,-0.930819 0.300782,-1.419922 3.29e-4,-1.9366851 -1.569175,-3.507063 -3.50586,-3.5078129 z m 19.181641,0.1523438 c -1.937447,-3.287e-4 -3.508141,1.5703647 -3.507813,3.5078121 0.0023,1.263664 0.684304,2.428365 1.785157,3.048829 l -0.03711,3.673828 c -0.0015,0.376098 0.146815,0.737315 0.41211,1.003906 l 5.564453,5.572266 c -0.0027,-0.006 -0.0051,-0.01115 -0.0078,-0.01758 0.660314,-0.689461 1.297707,-1.395058 1.908203,-2.11914 l -5.011718,-5.019531 v -2.820313 c 1.4313,-0.476022 2.397928,-1.813886 2.40039,-3.322266 3.28e-4,-1.9366844 -1.569175,-3.5070617 -3.505859,-3.5078121 z M 11.021484,9.3457031 c 0.8748,2.61e-5 1.583959,0.7091849 1.583985,1.5839849 -2.7e-5,0.8748 -0.709185,1.583958 -1.583985,1.583984 -0.874799,-2.7e-5 -1.5839574,-0.709185 -1.583984,-1.583984 2.61e-5,-0.8748 0.709184,-1.5839583 1.583984,-1.5839849 z m 19.15625,0.1738281 c 0.8748,-0.00105 1.584833,0.7072308 1.585938,1.5820308 0.0011,0.876326 -0.709612,1.586993 -1.585938,1.585938 -0.875563,-2.6e-5 -1.585037,-0.710376 -1.583984,-1.585938 0.0011,-0.874036 0.709947,-1.5820049 1.583984,-1.5820308 z M 15.597656,20.763672 c -1.936684,-3.28e-4 -3.507062,1.569175 -3.507812,3.505859 -3.29e-4,1.937447 1.570365,3.508141 3.507812,3.507813 1.497053,-0.0024 2.827548,-0.954762 3.3125,-2.371094 h 3.216797 l 5.28125,5.275391 c 0.738881,-0.601914 1.47594,-1.203639 2.207031,-1.830079 l -5.90625,-5.896484 c -0.266271,-0.26601 -0.627528,-0.415011 -1.003906,-0.414062 l -4.039062,0.03711 c -0.616257,-1.118252 -1.791544,-1.81325 -3.06836,-1.814454 z m 0,1.933594 c 0.8748,2.6e-5 1.583958,0.709184 1.583985,1.583984 -2.7e-5,0.8748 -0.709185,1.583958 -1.583985,1.583984 -0.874799,-2.7e-5 -1.583957,-0.709185 -1.583984,-1.583984 2.7e-5,-0.874799 0.709185,-1.583957 1.583984,-1.583984 z m -4.164062,6.160156 c 0.0029,-0.0013 0.0049,-0.0028 0.0078,-0.0039 -1.8586504,-1.632046 -1.5951151,-1.366639 -0.0078,0.0039 z m 2.207031,1.830078 c -0.006,0.006 -0.01157,0.01191 -0.01758,0.01758 6.765693,5.314409 5.282795,4.266884 0.01758,-0.01758 z"
     transform="scale(0.26458333)" />
</svg>
