<?xml version="1.0" encoding="UTF-8" standalone="no"?>
<svg
   xmlns:dc="http://purl.org/dc/elements/1.1/"
   xmlns:cc="http://creativecommons.org/ns#"
   xmlns:rdf="http://www.w3.org/1999/02/22-rdf-syntax-ns#"
   xmlns:svg="http://www.w3.org/2000/svg"
   xmlns="http://www.w3.org/2000/svg"
   xmlns:sodipodi="http://sodipodi.sourceforge.net/DTD/sodipodi-0.dtd"
   xmlns:inkscape="http://www.inkscape.org/namespaces/inkscape"
   aria-hidden="true"
   focusable="false"
   class="w-4 mr-1"
   role="img"
   viewBox="0 0 576 512"
   version="1.1"
   id="svg2472"
   sodipodi:docname="star.svg"
   inkscape:version="0.92.5 (2060ec1f9f, 2020-04-08)">
  <metadata
     id="metadata2478">
    <rdf:RDF>
      <cc:Work
         rdf:about="">
        <dc:format>image/svg+xml</dc:format>
        <dc:type
           rdf:resource="http://purl.org/dc/dcmitype/StillImage" />
        <dc:title></dc:title>
      </cc:Work>
    </rdf:RDF>
  </metadata>
  <defs
     id="defs2476" />
  <sodipodi:namedview
     pagecolor="#ffffff"
     bordercolor="#666666"
     borderopacity="1"
     objecttolerance="10"
     gridtolerance="10"
     guidetolerance="10"
     inkscape:pageopacity="0"
     inkscape:pageshadow="2"
     inkscape:window-width="1829"
     inkscape:window-height="807"
     id="namedview2474"
     showgrid="false"
     inkscape:zoom="0.4609375"
     inkscape:cx="288"
     inkscape:cy="256"
     inkscape:window-x="0"
     inkscape:window-y="0"
     inkscape:window-maximized="0"
     inkscape:current-layer="svg2472" />
  <path
     d="M 288.03711,-0.01171875 C 263.22325,-0.82431135 256.22726,25.326628 246.85274,43.039392 229.23516,78.759335 211.61758,114.47928 194,150.19922 c -50.25519,7.55386 -100.672064,14.22087 -150.824769,22.33693 -25.552216,6.56945 -30.193502,43.46678 -8.732881,57.69816 33.819346,32.9551 67.63869,65.9102 101.45804,98.8653 -8.38002,50.13097 -17.6762,100.13847 -25.47536,150.34772 -1.64988,26.30305 31.98756,42.09688 52.11991,26.09689 C 204.3633,483.56268 246.18165,461.58115 288,439.59961 c 45.07874,23.4414 89.76642,47.69637 135.093,70.62213 24.49438,9.67468 50.01949,-17.31165 41.00335,-41.46108 -7.99891,-46.55368 -15.99783,-93.10737 -23.99674,-139.66105 36.22705,-35.61655 73.10965,-70.60669 108.92132,-106.62014 16.82446,-20.312 -1.05062,-52.92002 -26.78385,-51.83421 C 475.49138,163.82992 428.74569,157.01457 382,150.19922 359.31872,104.73648 337.45642,58.831589 314.25615,13.649048 308.47619,5.1049738 298.31242,-0.05669153 288.03711,-0.01171875 Z M 288,68.099609 c 20.73307,42.000001 41.46615,84.000001 62.19922,126.000001 46.33333,6.73372 92.66667,13.46745 139,20.20117 -33.5332,32.66667 -67.06641,65.33333 -100.59961,98 7.90039,46.13281 15.80078,92.26563 23.70117,138.39844 C 370.86719,428.93294 329.43359,407.16667 288,385.40039 c 0,-105.76693 0,-211.53385 0,-317.300781 z"
     id="path2470"
     inkscape:connector-curvature="0" />
</svg>
