<?xml version="1.0" encoding="UTF-8" standalone="no"?>

<svg
   width="49.465382mm"
   height="9.5649996mm"
   viewBox="0 0 49.465382 9.5649996"
   version="1.1"
   id="svg239145"
   xmlns="http://www.w3.org/2000/svg"
   xmlns:svg="http://www.w3.org/2000/svg"
   fill="currentColor"
   >
   
  <defs
     id="defs239142" />
  <path
     id="path2026"  
     d="m 49.46535,5.061 q 0,0.5251 -0.24664,0.7638 -0.23869,0.2307 -0.53307,0.2307 h -1.88562 q 0,0.2228 0.26255,0.3739 0.26256,0.1512 0.5649,0.1512 0.21481,0 0.40576,-0.032 0.19095,-0.032 0.27847,-0.064 l 0.0875,-0.032 q 0.19095,-0.088 0.31825,-0.088 0.2546,0 0.43759,0.358 0.10343,0.2148 0.10343,0.366 0,0.7081 -1.69467,0.7081 -0.58876,0 -1.05022,-0.1989 -0.45351,-0.2069 -0.70811,-0.5331 -0.2546,-0.3341 -0.38189,-0.7001 -0.11935,-0.366 -0.11935,-0.7479 0,-1.0025 0.64446,-1.5992 0.6524,-0.6047 1.62306,-0.6047 0.38986,0 0.71606,0.1114 0.32621,0.1034 0.54102,0.2785 0.21482,0.1671 0.35803,0.3898 0.15117,0.2228 0.21482,0.4456 0.0637,0.2148 0.0637,0.4217 z m -1.67876,0.2705 q 0.30234,0 0.30234,-0.2546 0,-0.183 -0.14322,-0.2944 -0.13525,-0.1114 -0.39781,-0.1114 -0.2546,0 -0.50919,0.2148 -0.2546,0.2069 -0.2546,0.4456 z m -3.3416,-0.4217 -0.51715,-0.032 v 1.0979 q 0,0.2148 0.0636,0.3103 0.0716,0.095 0.24664,0.095 0.1989,0 0.29438,0.016 0.10343,0.01 0.20686,0.072 0.11139,0.056 0.15117,0.183 0.0398,0.1273 0.0398,0.3501 0,0.2466 -0.0557,0.3978 -0.0477,0.1512 -0.16709,0.2148 -0.11934,0.056 -0.21481,0.072 -0.0875,0.01 -0.26256,0.01 -0.82744,0 -1.25708,-0.374 -0.42963,-0.3739 -0.42963,-1.265 V 4.8802 q -0.15117,0.024 -0.28643,0.024 -0.21482,0 -0.33416,-0.1352 -0.11139,-0.1353 -0.11139,-0.5649 0,-0.2228 0.0398,-0.366 0.0398,-0.1512 0.11138,-0.2148 0.0796,-0.064 0.15117,-0.08 0.0716,-0.024 0.16708,-0.024 l 0.26256,0.032 V 2.7318 q 0,-0.183 0.008,-0.2705 0.0159,-0.088 0.0716,-0.191 0.0637,-0.1113 0.21482,-0.1511 0.15116,-0.048 0.40576,-0.048 0.19891,0 0.32621,0.04 0.13525,0.04 0.20686,0.095 0.0716,0.048 0.10343,0.1591 0.0398,0.1034 0.0398,0.183 0.008,0.08 0.008,0.2228 v 0.7797 q 0.35007,-0.032 0.52511,-0.032 0.18299,0 0.27051,0.016 0.0955,0.01 0.20686,0.072 0.11934,0.056 0.16708,0.2068 0.0477,0.1512 0.0477,0.4058 0,0.2467 -0.0477,0.3978 -0.0477,0.1512 -0.16708,0.2148 -0.11934,0.056 -0.21482,0.072 -0.0875,0.01 -0.27051,0.01 z M 40.68171,3.5016 q 0.24664,0 0.39781,0.048 0.15117,0.048 0.20686,0.1671 0.0637,0.1193 0.0716,0.2148 0.0159,0.088 0.0159,0.2705 v 2.7847 q 0,0.183 -0.0159,0.2784 -0.008,0.088 -0.0716,0.2069 -0.0557,0.1114 -0.20686,0.1591 -0.15117,0.048 -0.40576,0.048 -0.35803,0 -0.5092,-0.1035 -0.14321,-0.1114 -0.16708,-0.3182 -0.29438,0.4217 -0.95475,0.4217 -0.71606,0 -1.30482,-0.6286 -0.58876,-0.6285 -0.58876,-1.4719 0,-0.8195 0.58876,-1.4401 0.59672,-0.6285 1.30482,-0.6285 0.27051,0 0.49329,0.095 0.22277,0.095 0.31029,0.183 0.0875,0.079 0.14321,0.1591 0.0239,-0.2228 0.16708,-0.3342 0.15117,-0.1113 0.52511,-0.1113 z m -1.42416,2.7846 q 0.28642,0 0.47737,-0.2148 0.19891,-0.2148 0.19891,-0.4774 0,-0.2546 -0.19095,-0.4773 -0.18299,-0.2228 -0.50124,-0.2228 -0.31029,0 -0.5092,0.2228 -0.19095,0.2227 -0.19095,0.4853 0,0.2625 0.20686,0.4774 0.20686,0.2068 0.5092,0.2068 z M 35.13624,3.4936 q 0.63649,0 1.06613,0.4933 Q 36.632,4.4722 36.632,5.602 v 1.3923 q 0,0.183 -0.0159,0.2785 -0.008,0.088 -0.0716,0.2069 -0.0557,0.1193 -0.20686,0.167 -0.15117,0.048 -0.40576,0.048 -0.24665,0 -0.39781,-0.048 -0.15117,-0.056 -0.21482,-0.175 -0.0557,-0.1193 -0.0716,-0.2069 -0.008,-0.095 -0.008,-0.2784 V 5.594 q 0,-0.6922 -0.49329,-0.6922 -0.27847,0 -0.3819,0.183 -0.0955,0.183 -0.0955,0.5172 v 1.3923 q 0,0.191 -0.0159,0.2785 -0.008,0.088 -0.0716,0.2069 -0.0637,0.1193 -0.21482,0.167 -0.15117,0.048 -0.40576,0.048 -0.24665,0 -0.39781,-0.048 -0.15117,-0.056 -0.21482,-0.175 -0.0557,-0.1193 -0.0716,-0.2069 -0.008,-0.095 -0.008,-0.2784 V 5.594 q 0,-0.6922 -0.49329,-0.6922 -0.47737,0 -0.47737,0.6922 v 1.4083 q 0,0.183 -0.0159,0.2785 -0.008,0.088 -0.0716,0.2068 -0.0637,0.1114 -0.21482,0.1591 -0.15117,0.048 -0.40577,0.048 -0.24664,0 -0.39781,-0.048 -0.15116,-0.048 -0.21481,-0.167 -0.0557,-0.1194 -0.0716,-0.2069 -0.008,-0.087 -0.008,-0.2785 V 4.1937 q 0,-0.183 0.008,-0.2705 0.0159,-0.095 0.0796,-0.2068 0.0637,-0.1194 0.21482,-0.1671 0.15117,-0.048 0.40577,-0.048 0.38985,0 0.52511,0.1432 0.13525,0.1432 0.13525,0.4137 0.0159,-0.024 0.0398,-0.056 0.0239,-0.04 0.11139,-0.1353 0.0875,-0.1034 0.18299,-0.175 0.0955,-0.08 0.24665,-0.1353 0.15912,-0.064 0.31824,-0.064 0.81154,0 1.20935,0.6922 0.0875,-0.1194 0.20686,-0.2467 0.1273,-0.1352 0.39781,-0.2864 0.27051,-0.1591 0.55694,-0.1591 z M 25.94683,6.875 q -0.20686,-0.2546 -0.20686,-0.4217 0,-0.2387 0.34211,-0.5728 0.19891,-0.191 0.39781,-0.191 0.24665,0 0.60467,0.358 l 0.0398,0.04 q 0.0318,0.04 0.0955,0.1034 0.0636,0.064 0.24664,0.1751 0.183,0.1034 0.35803,0.1034 0.73993,0 0.73993,-0.6047 0,-0.1829 -0.20686,-0.3023 Q 28.15869,5.4351 27.85636,5.3794 27.55402,5.3234 27.20395,5.2044 26.85387,5.0771 26.55154,4.91 26.2492,4.7429 26.04234,4.3849 q -0.1989,-0.366 -0.1989,-0.8752 0,-0.7001 0.51715,-1.2173 0.52511,-0.5251 1.42416,-0.5251 0.47737,0 0.86723,0.1273 0.39781,0.1193 0.54898,0.2466 l 0.15912,0.1194 0.0398,0.032 q 0.24664,0.2307 0.24664,0.3819 0,0.1671 -0.19094,0.4456 -0.27052,0.3978 -0.55694,0.3978 -0.16708,0 -0.41372,-0.1592 -0.0239,-0.016 -0.0955,-0.079 -0.0637,-0.064 -0.11934,-0.095 -0.0557,-0.04 -0.19095,-0.072 -0.1273,-0.04 -0.30234,-0.04 -0.19094,0 -0.36598,0.1273 -0.16708,0.1194 -0.16708,0.3183 0,0.2386 0.1989,0.3739 0.20687,0.1353 0.5092,0.183 0.30234,0.048 0.66037,0.1512 0.35803,0.095 0.66036,0.2387 0.30234,0.1432 0.50124,0.5012 0.20687,0.3501 0.20687,0.8752 0,0.5092 -0.20687,0.907 -0.20686,0.3898 -0.54102,0.6047 -0.3262,0.2148 -0.67628,0.3182 -0.35007,0.1034 -0.70014,0.1034 -0.37394,0 -0.70811,-0.088 Q 26.81409,7.5918 26.59928,7.464 26.39241,7.3288 26.23329,7.1935 26.08212,7.0583 26.01847,6.9628 Z M 23.81456,2.5627 q 0,-0.183 0.008,-0.2705 0.0159,-0.095 0.0796,-0.2148 0.0636,-0.1194 0.21482,-0.1671 0.15117,-0.048 0.40576,-0.048 0.20687,0 0.34212,0.04 0.13526,0.04 0.20686,0.095 0.0716,0.056 0.10343,0.1671 0.0398,0.1034 0.0398,0.183 0.008,0.072 0.008,0.2228 v 4.4236 q 0,0.191 -0.0159,0.2785 -0.008,0.088 -0.0716,0.2069 -0.0637,0.1193 -0.21481,0.167 -0.15117,0.048 -0.40577,0.048 -0.20686,0 -0.34212,-0.04 -0.13525,-0.04 -0.20686,-0.096 -0.0716,-0.056 -0.11139,-0.1591 -0.0318,-0.1114 -0.0398,-0.183 0,-0.08 0,-0.2307 z m -0.51714,2.18 q 0,1.2094 -0.85927,2.0766 -0.85132,0.8672 -2.06865,0.8672 h -1.456 q -0.2386,0 -0.3898,-0.048 -0.1512,-0.048 -0.2148,-0.1512 -0.064,-0.1114 -0.08,-0.2148 -0.016,-0.1114 -0.016,-0.2944 V 2.5545 q 0,-0.191 0.01,-0.2785 0.016,-0.088 0.08,-0.2069 0.064,-0.1193 0.2148,-0.167 0.1512,-0.048 0.4058,-0.048 0.2387,0 0.732,0.01 0.4933,0 0.7399,0 1.15365,0 2.02884,0.8354 0.87518,0.8274 0.87518,2.0447 z m -1.40825,0.032 q 0,-0.6365 -0.4535,-1.0661 Q 20.99012,3.271 20.3854,3.271 h -0.7637 v 3.0075 h 0.7717 q 0.57285,0 1.03431,-0.4217 0.46146,-0.4296 0.46146,-1.0821 z M 16.8847,1.8705 q 0.1989,0 0.3342,0.04 0.1432,0.04 0.2068,0.095 0.072,0.056 0.1035,0.1671 0.04,0.1034 0.04,0.183 0.01,0.072 0.01,0.2227 V 6.994 q 0,0.191 -0.016,0.2785 -0.01,0.088 -0.072,0.2069 -0.064,0.1193 -0.2148,0.167 -0.1512,0.048 -0.4058,0.048 -0.3103,0 -0.4296,-0.048 Q 16.3216,7.5984 16.2421,7.4953 14.4519,5.1084 13.887,4.3764 V 6.994 q 0,0.191 -0.016,0.2785 -0.01,0.088 -0.072,0.2069 -0.064,0.1193 -0.2148,0.167 -0.1512,0.048 -0.4058,0.048 -0.2466,0 -0.3978,-0.048 -0.1432,-0.048 -0.2068,-0.167 -0.064,-0.1194 -0.08,-0.2149 -0.01,-0.095 -0.01,-0.2784 V 2.5465 q 0,-0.183 0.016,-0.2705 0.016,-0.088 0.072,-0.1989 0.064,-0.1114 0.2148,-0.1591 0.1511,-0.048 0.4057,-0.048 0.2228,0 0.3581,0.048 0.1432,0.04 0.1989,0.095 0.056,0.048 0.1432,0.1592 l 0.04,0.048 q 1.6787,2.2834 2.2436,3.0154 V 2.5464 q 0,-0.183 0.016,-0.2705 0.016,-0.088 0.072,-0.1989 0.064,-0.1114 0.2149,-0.1591 0.1511,-0.048 0.4057,-0.048 z" />
  <path
     id="path143596-1-0-6-1-3-5-0-4-1-9-7-4"
     d="M 3.1967,0.0092 C 1.4312,0.0092 1e-4,1.4403 0,3.2057 0.01,3.6569 0.076,4.122 0.2922,4.5121 1.4575,6.6117 3.6916,8.1644 5.4265,9.565 6.0025,9.1103 6.6316,8.6319 7.2578,8.1239 L 5.8542,6.7223 H 5.0031 A 0.92795142,0.92795142 0 0 1 4.1267,7.3493 0.92795142,0.92795142 0 0 1 3.1988,6.4214 0.92795142,0.92795142 0 0 1 4.1267,5.4935 0.92795142,0.92795142 0 0 1 4.9386,5.9739 l 1.0686,-0.01 v 1e-4 A 0.37448725,0.37448725 0 0 1 6.273,6.0734 L 7.8371,7.6353 C 7.9678,7.5236 8.0977,7.4106 8.226,7.2955 L 6.006,5.074 4.7093,5.084 c -0.098,0 -0.1927,-0.038 -0.263,-0.1065 L 3.2179,3.7779 c -0.01,-0.01 -0.01,-0.01 -0.01,-0.011 A 0.92795142,0.92795142 0 0 1 2.9159,3.8159 0.92795142,0.92795142 0 0 1 1.988,2.888 0.92795142,0.92795142 0 0 1 2.9159,1.96 a 0.92795142,0.92795142 0 0 1 0.928,0.928 0.92795142,0.92795142 0 0 1 -0.08,0.3757 l 1.0969,1.0715 1.2991,-0.01 c 0.1,0 0.1953,0.039 0.2657,0.1095 L 8.7721,6.7823 C 8.8851,6.6717 8.9979,6.561 9.1068,6.4471 L 7.6349,4.9729 A 0.37448725,0.37448725 0 0 1 7.5255,4.7072 l 0.01,-0.9719 A 0.92795142,0.92795142 0 0 1 7.0631,2.9284 0.92795142,0.92795142 0 0 1 7.991,2.0005 0.92795142,0.92795142 0 0 1 8.919,2.9284 0.92795142,0.92795142 0 0 1 8.2836,3.8074 V 4.5536 L 9.6171,5.8892 C 9.9837,5.4533 10.3122,4.9929 10.5817,4.503 10.7964,4.1127 10.8616,3.6469 10.862,3.1966 10.862,1.4311 9.4308,0 7.6653,0 6.8327,0 6.0332,0.3262 5.4369,0.9074 4.8399,0.3256 4.0393,0 3.2057,0 Z M 2.9162,2.4725 A 0.41910852,0.41910852 0 0 0 2.4972,2.8916 0.41910852,0.41910852 0 0 0 2.9162,3.3107 0.41910852,0.41910852 0 0 0 3.3354,2.8916 0.41910852,0.41910852 0 0 0 2.9162,2.4725 Z m 5.0685,0.046 A 0.41910852,0.41910852 0 0 0 7.5656,2.9375 0.41910852,0.41910852 0 0 0 7.9847,3.3567 0.41910852,0.41910852 0 0 0 8.4039,2.9375 0.41910852,0.41910852 0 0 0 7.9847,2.5185 Z M 4.1267,6.0053 A 0.41910852,0.41910852 0 0 0 3.7076,6.4243 0.41910852,0.41910852 0 0 0 4.1267,6.8436 0.41910852,0.41910852 0 0 0 4.5459,6.4243 0.41910852,0.41910852 0 0 0 4.1267,6.0053 Z" />
</svg>
