<?xml version="1.0" encoding="UTF-8" standalone="no"?>
<svg
   fill="none"
   stroke="currentColor"
   stroke-width="1.5"
   viewBox="0 0 24 24"
   aria-hidden="true"
   version="1.1"
   id="svg4"
   xmlns="http://www.w3.org/2000/svg"
   xmlns:svg="http://www.w3.org/2000/svg">
  <defs
     id="defs8" />
  <path
     id="path5677"
     style="fill:#000000;stroke:none;stroke-width:0.350895"
     d="m 19.437806,9.1244151 v 1.6557569 h -2.04876 C 16.832059,8.3182922 14.62797,6.4735199 12,6.4735199 c -2.6282037,0 -4.8320584,1.8447723 -5.3892798,4.3068861 H 4.5621949 V 9.124181 L 0.49999994,12.000351 4.561961,14.876053 V 13.220296 H 6.6107202 C 7.1677076,15.681942 9.3717963,17.52648 12,17.52648 c 2.628204,0 4.832292,-1.844538 5.38928,-4.306652 h 2.04876 v 1.656225 L 23.5,11.999883 Z M 3.8604049,12.518506 v 1.000519 L 1.7147986,12.000351 3.8604049,10.480975 v 1.001221 h 2.6380289 c -0.015908,0.170534 -0.02503,0.343175 -0.02503,0.517921 0,0.174512 0.00913,0.347152 0.02503,0.518155 H 3.8604049 Z M 12,16.82469 c -2.660486,0 -4.8248066,-2.164321 -4.8248066,-4.824807 0,-2.660252 2.1643206,-4.8248069 4.8248066,-4.8248069 2.66072,0 4.824807,2.164555 4.824807,4.8248069 0,2.660486 -2.164321,4.824807 -4.824807,4.824807 z m 8.139595,-3.305665 v -1.000987 h -2.638029 c 0.01591,-0.170769 0.02503,-0.343175 0.02503,-0.518155 0,-0.174746 -0.0091,-0.347386 -0.02503,-0.517921 h 2.638029 V 10.48121 l 2.145607,1.518907 z M 13.639382,12.359901 C 13.494111,12.21042 13.315857,12.077548 13.104384,11.961986 12.893379,11.846191 12.601902,11.719635 12.230889,11.583488 11.859876,11.44734 11.596705,11.303239 11.44161,11.150717 c -0.15533,-0.152054 -0.232527,-0.354404 -0.232527,-0.606815 0,-0.28095 0.07814,-0.496867 0.234398,-0.6479859 0.156732,-0.150884 0.374756,-0.226444 0.652665,-0.226444 0.281417,0 0.503416,0.105268 0.667635,0.3158049 0.163049,0.209601 0.245861,0.497804 0.245861,0.862734 h 1.052218 c 0,-0.568216 -0.138019,-1.02976 -0.413589,-1.385099 -0.27557,-0.35534 -0.665297,-0.5691521 -1.16965,-0.6414364 V 7.8649357 h -0.696175 v 0.9478846 c -0.502014,0.058014 -0.89876,0.2421176 -1.19164,0.5523088 -0.292881,0.310191 -0.439087,0.7060009 -0.439087,1.1869609 0,0.710211 0.337094,1.246613 1.013385,1.608503 0.201881,0.110649 0.486574,0.229252 0.852207,0.359083 0.365632,0.128895 0.625996,0.273697 0.78273,0.434408 0.156733,0.161178 0.234865,0.365165 0.234865,0.610323 0,0.264107 -0.08585,0.47558 -0.258258,0.63512 -0.172173,0.159073 -0.424115,0.238842 -0.754893,0.238842 -0.33639,0 -0.596755,-0.100594 -0.780624,-0.300132 -0.183869,-0.20001 -0.276739,-0.482831 -0.276739,-0.847528 H 9.907964 c 0,0.57383 0.153926,1.034907 0.462947,1.382527 0.309022,0.347151 0.750682,0.553712 1.324512,0.617809 v 0.843317 h 0.691497 v -0.847996 c 0.535935,-0.05474 0.954435,-0.234866 1.254099,-0.539677 0.300132,-0.304343 0.450549,-0.701322 0.450549,-1.191639 0,-0.260833 -0.0393,-0.488446 -0.1179,-0.682608 -0.0779,-0.191355 -0.189483,-0.36306 -0.334286,-0.512541 z" />
</svg>
