<?xml version="1.0" encoding="UTF-8" standalone="no"?>
<!-- Created with Inkscape (http://www.inkscape.org/) -->

<svg
   width="260.34998mm"
   height="85.329651mm"
   viewBox="0 0 260.34998 85.329651"
   version="1.1"
   id="svg45249"
   inkscape:version="1.1.2 (0a00cf5339, 2022-02-04)"
   sodipodi:docname="crystel-care-logo-colour.svg"
   xmlns:inkscape="http://www.inkscape.org/namespaces/inkscape"
   xmlns:sodipodi="http://sodipodi.sourceforge.net/DTD/sodipodi-0.dtd"
   xmlns="http://www.w3.org/2000/svg"
   xmlns:svg="http://www.w3.org/2000/svg">
  <sodipodi:namedview
     id="namedview45251"
     pagecolor="#ffffff"
     bordercolor="#666666"
     borderopacity="1.0"
     inkscape:pageshadow="2"
     inkscape:pageopacity="0.0"
     inkscape:pagecheckerboard="0"
     inkscape:document-units="mm"
     showgrid="false"
     fit-margin-top="0"
     fit-margin-left="0"
     fit-margin-right="0"
     fit-margin-bottom="0"
     inkscape:zoom="0.77771465"
     inkscape:cx="711.70063"
     inkscape:cy="233.37609"
     inkscape:window-width="3370"
     inkscape:window-height="1376"
     inkscape:window-x="0"
     inkscape:window-y="0"
     inkscape:window-maximized="1"
     inkscape:current-layer="layer1" />
  <defs
     id="defs45246" />
  <g
     inkscape:label="Layer 1"
     inkscape:groupmode="layer"
     id="layer1"
     transform="translate(83.22654,-86.613524)">
    <g
       id="g45102"
       transform="translate(145.26804,-10.206187)">
      <g
         id="g40901"
         style="fill:#e70bc7;fill-opacity:1">
        <path
           style="fill:#e70bc7;fill-opacity:1;stroke-width:1"
           d="m 14.98821,136.04227 c -0.52335,-0.21107 -0.38475,-0.61841 0.21047,-0.61841 0.29765,0 0.83343,-0.29225 1.19062,-0.64944 l 0.64943,-0.64943 v -7.91384 c 0,-7.53924 -0.0253,-7.94601 -0.53444,-8.59328 -0.29393,-0.37368 -0.7749,-0.71716 -1.06881,-0.76328 -0.2939,-0.0461 -0.52966,-0.20292 -0.52389,-0.34844 0.007,-0.16591 1.73726,-0.26459 4.64069,-0.26459 2.91377,0 4.62834,0.0981 4.62517,0.26459 -0.003,0.14552 -0.33005,0.3515 -0.7273,0.45774 -1.3674,0.36571 -1.38433,0.47919 -1.38433,9.28089 v 8.18229 l 2.63577,-0.10587 c 2.40861,-0.0967 2.73355,-0.17394 3.77031,-0.89576 0.73715,-0.51323 1.41257,-1.32073 1.92829,-2.3054 0.69961,-1.33578 1.45521,-1.99131 1.45521,-1.2625 0,0.68224 -1.17037,5.7404 -1.39508,6.02934 -0.19564,0.25156 -2.03876,0.32573 -7.69929,0.30984 -4.09315,-0.0115 -7.59092,-0.0809 -7.77282,-0.15434 z"
           id="path15534" />
        <path
           style="fill:#e70bc7;fill-opacity:1;stroke-width:1"
           d="m -3.15779,136.04127 c -0.29455,-0.29454 -0.19792,-0.61736 0.1848,-0.61736 0.19866,0 0.67491,-0.24676 1.05834,-0.54837 l 0.69714,-0.54837 v -8.18288 c 0,-7.8301 -0.0228,-8.20569 -0.52917,-8.71204 -0.29104,-0.29104 -0.76729,-0.52917 -1.05833,-0.52917 -0.29105,0 -0.52917,-0.17149 -0.52917,-0.38109 0,-0.31957 1.14259,-0.39837 7.0776,-0.48812 3.89268,-0.0589 7.31573,-0.15527 7.60677,-0.21422 0.50238,-0.10177 0.52917,0.0335 0.52917,2.67093 0,2.27893 -0.0705,2.77813 -0.39239,2.77813 -0.25178,0 -0.45315,-0.37385 -0.56197,-1.04332 -0.10714,-0.65911 -0.43088,-1.26807 -0.87914,-1.65364 -0.63813,-0.5489 -0.97437,-0.61034 -3.34063,-0.61034 H 4.07415 v 3.73219 3.73218 l 2.14226,-0.0973 c 1.9588,-0.089 2.19672,-0.1606 2.77813,-0.83652 0.34972,-0.40658 0.63586,-1.03025 0.63586,-1.38594 0,-0.39846 0.15235,-0.6467 0.39688,-0.6467 0.33387,0 0.39687,0.58796 0.39687,3.70416 0,2.98427 -0.0714,3.70417 -0.36743,3.70417 -0.20986,0 -0.44132,-0.39386 -0.53973,-0.91844 -0.25536,-1.3612 -0.97295,-1.72739 -3.38504,-1.72739 h -2.0578 v 3.57187 3.57188 l 1.91823,-0.002 c 1.05503,-8e-4 2.37314,-0.1278 2.92914,-0.28219 1.35496,-0.37625 2.9379,-1.85473 3.53164,-3.29857 0.26649,-0.64806 0.63336,-1.17873 0.81526,-1.17927 0.42306,-0.001 0.43112,-0.111 -0.24293,3.30629 -0.31574,1.60073 -0.70278,2.9979 -0.8601,3.10481 -0.35706,0.24266 -15.08154,0.26774 -15.32318,0.0261 z"
           id="path15532" />
        <path
           style="fill:#e70bc7;fill-opacity:1;stroke-width:1"
           d="m -18.76821,136.04127 c -0.3076,-0.3076 -0.19094,-0.61736 0.23251,-0.61736 0.2249,0 0.70115,-0.29224 1.05834,-0.64943 l 0.64943,-0.64943 v -8.08182 -8.08182 h -2.39328 c -2.17019,0 -2.45217,0.0589 -3.02517,0.6319 -0.34754,0.34754 -0.71257,1.06192 -0.81117,1.5875 -0.10373,0.55294 -0.3341,0.9556 -0.5467,0.9556 -0.29029,0 -0.36743,-0.58577 -0.36743,-2.79011 v -2.79011 l 0.99219,0.21042 c 1.24097,0.26319 16.29419,0.27923 17.4625,0.0186 l 0.85989,-0.19182 v 2.77151 c 0,2.17245 -0.0785,2.77151 -0.36306,2.77151 -0.21786,0 -0.42951,-0.4156 -0.52923,-1.03918 -0.27007,-1.68893 -1.08733,-2.13582 -3.90589,-2.13582 h -2.34557 v 8.08182 8.08182 l 0.64944,0.64943 c 0.35718,0.35719 0.89296,0.64943 1.19062,0.64943 0.64061,0 0.71896,0.40434 0.12268,0.63315 -0.57086,0.21906 -8.70964,0.20467 -8.9301,-0.0158 z"
           id="path15530" />
        <path
           style="fill:#e70bc7;fill-opacity:1;stroke-width:1"
           d="m -55.27467,136.04727 c -0.29992,-0.29992 -0.20716,-0.62339 0.17877,-0.62339 0.19866,0 0.67491,-0.24676 1.05833,-0.54837 0.69067,-0.54328 0.69714,-0.58103 0.69714,-4.06548 v -3.51711 l -2.57969,-4.04547 c -3.13134,-4.91057 -4.39175,-6.3444 -5.57704,-6.3444 -0.56948,0 -0.8391,-0.12753 -0.8391,-0.39688 0,-0.33921 0.74965,-0.39687 5.15937,-0.39687 4.40973,0 5.15938,0.0577 5.15938,0.39687 0,0.21828 -0.23394,0.39688 -0.51986,0.39688 -0.28592,0 -0.63067,0.20836 -0.76611,0.46302 -0.19009,0.35741 0.23788,1.29523 1.87631,4.1116 1.16741,2.00672 2.16578,3.60537 2.2186,3.55255 0.43424,-0.43424 4.07022,-7.00764 4.07022,-7.35845 0,-0.26721 -0.33301,-0.56846 -0.81359,-0.73599 -1.58774,-0.55349 -0.52731,-0.82648 3.21046,-0.82648 3.10232,0 3.68855,0.0631 3.68855,0.39687 0,0.26355 -0.26356,0.39688 -0.78454,0.39688 -1.23049,0 -2.28374,1.15468 -5.37085,5.88804 l -2.84044,4.35516 v 3.49475 c 0,1.92211 0.11807,3.71537 0.26238,3.98502 0.14431,0.26965 0.62687,0.57032 1.07235,0.66817 0.44548,0.0978 0.76408,0.31588 0.70801,0.48452 -0.11283,0.33931 -8.94208,0.59514 -9.26865,0.26856 z"
           id="path15528" />
        <path
           style="fill:#e70bc7;fill-opacity:1;stroke-width:1"
           d="m -80.14537,136.04741 c -0.31318,-0.31318 -0.20053,-0.62353 0.22634,-0.62353 0.2249,0 0.70115,-0.29224 1.05834,-0.64943 l 0.64943,-0.64943 v -8.08182 c 0,-7.72904 -0.0231,-8.10492 -0.52917,-8.61099 -0.29104,-0.29104 -0.76729,-0.52916 -1.05833,-0.52916 -0.30741,0 -0.52917,-0.17639 -0.52917,-0.42091 0,-0.6387 12.26929,-0.41855 14.01917,0.25155 2.31582,0.88681 3.44649,2.48293 3.43752,4.85257 -0.009,2.40916 -1.02276,4.15577 -2.99477,5.16032 l -0.75162,0.38288 0.67808,0.4443 c 0.37295,0.24436 1.58606,1.8135 2.69581,3.48696 2.15033,3.24264 2.8452,3.95912 4.10892,4.23668 0.43744,0.0961 0.7478,0.31267 0.6897,0.48131 -0.0719,0.20883 -1.00125,0.29832 -2.91357,0.28058 -4.782,-0.0444 -6.11697,-0.96824 -8.44685,-5.84564 -0.83552,-1.74908 -1.59282,-2.95604 -2.08143,-3.31727 -0.42242,-0.31232 -0.76804,-0.651 -0.76804,-0.75263 0,-0.10163 0.55514,-0.26803 1.23364,-0.36978 2.5194,-0.37781 3.95161,-3.27415 2.88332,-5.83092 -0.5107,-1.22227 -1.80637,-1.97943 -3.38936,-1.98068 l -1.25677,-9.9e-4 v 8.01092 c 0,8.69898 0.038,8.93996 1.46783,9.29882 0.37754,0.0948 0.6384,0.31672 0.57971,0.49325 -0.11719,0.35243 -8.6706,0.62117 -9.00873,0.28304 z"
           id="path15526" />
        <path
           style="fill:#e70bc7;fill-opacity:1;stroke-width:1"
           d="m -35.79157,136.22216 c -1.31028,-0.27839 -2.4982,-0.85899 -3.00369,-1.46807 -0.49291,-0.59392 -0.41459,-2.89607 0.14622,-4.29767 0.51139,-1.2781 1.18058,-1.49772 1.18942,-0.39035 0.009,1.17534 0.91896,2.84776 1.99532,3.66874 0.90512,0.69036 1.19705,0.76303 3.06549,0.76303 1.8501,0 2.13393,-0.0689 2.72617,-0.66146 0.36358,-0.3638 0.73789,-1.04609 0.8318,-1.5162 0.15028,-0.75229 0.048,-0.97031 -0.85348,-1.81879 -0.56333,-0.53022 -2.56351,-1.93153 -4.44484,-3.11401 -2.90909,-1.82845 -3.5159,-2.328 -4.05786,-3.34058 -0.54519,-1.01861 -0.61969,-1.45205 -0.51565,-3.00001 0.14798,-2.20177 1.03482,-3.64915 2.81021,-4.58645 0.97436,-0.5144 1.56166,-0.61532 3.57187,-0.61374 1.32318,0.001 3.21502,0.0783 4.20409,0.1717 1.76182,0.16638 1.79565,0.18379 1.66756,0.85802 -0.0719,0.3785 -0.20889,1.43813 -0.30442,2.35472 -0.1927,1.849 -0.52657,2.0045 -1.04789,0.48808 -0.40398,-1.17509 -0.94218,-1.64307 -2.34179,-2.03625 -1.2692,-0.35655 -2.85158,-0.10887 -3.73273,0.58424 -0.82121,0.64597 -0.93677,2.28755 -0.20622,2.92962 0.25466,0.22382 2.12989,1.42694 4.16719,2.67359 2.42795,1.48572 3.90851,2.57201 4.29727,3.15295 1.28418,1.91899 1.00246,5.14192 -0.61461,7.0311 -1.41212,1.64974 -2.89362,2.23317 -5.90369,2.32494 -1.39781,0.0426 -3.03839,-0.0281 -3.64574,-0.15715 z"
           id="path15524" />
        <path
           style="fill:#e70bc7;fill-opacity:1;stroke-width:1"
           d="m -96.37174,136.08696 c -6.36148,-1.38344 -10.10145,-6.93269 -9.11995,-13.53186 0.16876,-1.13464 0.59492,-2.69225 0.94702,-3.46135 0.88793,-1.93948 3.05233,-4.14551 5.01078,-5.10715 4.0168,-1.97235 10.47397,-2.10023 14.56959,-0.28854 l 1.19679,0.5294 v 3.05759 c 0,1.8415 -0.10419,3.05758 -0.26195,3.05758 -0.14407,0 -0.60054,-0.74414 -1.01437,-1.65364 -0.85273,-1.87412 -2.36677,-3.39388 -3.91462,-3.9294 -0.56472,-0.19539 -1.86021,-0.35858 -2.87885,-0.36266 -3.22459,-0.0129 -5.65005,1.61577 -7.02072,4.71439 -0.837,1.89218 -1.17849,5.02697 -0.81434,7.47536 0.76214,5.12426 3.55706,8.03468 7.72178,8.04087 4.26108,0.006 6.68208,-2.12033 7.74554,-6.80386 0.21823,-0.96111 0.49685,-1.55695 0.75106,-1.60616 0.33655,-0.0651 0.42845,0.42162 0.54953,2.91042 0.14037,2.88557 0.12264,3.01873 -0.51423,3.86117 -0.94538,1.25053 -3.13857,2.61253 -4.96848,3.08551 -1.91023,0.49373 -5.74376,0.49965 -7.98458,0.0123 z"
           id="path15522" />
      </g>
      <g
         id="g15570"
         style="fill:#07dd43;fill-opacity:1">
        <path
           style="fill:#07dd43;fill-opacity:1;stroke-width:1"
           d="m -141.04441,112.85841 c -2.61001,-1.47823 -3.08083,-5.46971 -0.88681,-7.51825 3.08885,-2.88405 8.13878,-0.93599 8.15311,3.14514 0.002,0.68175 -0.12264,1.57472 -0.27786,1.98438 -0.97648,2.57721 -4.51817,3.78781 -6.98844,2.38873 z"
           id="path15538" />
        <path
           style="fill:#07dd43;fill-opacity:1;stroke-width:1"
           d="m -153.44415,141.13533 c -2.21698,-0.81654 -3.3333,-2.66324 -3.34255,-5.52945 -0.005,-1.42615 0.24039,-2.55834 1.17363,-5.42396 1.40019,-4.29941 2.69143,-9.95332 3.04825,-13.34727 0.14139,-1.34483 0.44259,-4.26698 0.66934,-6.49367 0.56875,-5.58523 1.56663,-8.2546 3.08578,-8.2546 0.66328,0 0.85298,0.16906 1.2846,1.14481 0.27852,0.62964 0.69235,2.26675 0.91962,3.63802 0.77288,4.66329 2.89862,7.52225 6.08193,8.17975 1.56519,0.32329 2.72907,0.0557 6.33692,-1.4567 2.82198,-1.183 5.15756,-1.48357 6.42699,-0.82712 2.58881,1.33872 0.33712,5.22874 -6.7038,11.58146 -5.19976,4.69152 -9.5327,9.30292 -11.74573,12.5006 -1.1237,1.62366 -2.44341,3.19547 -3.04271,3.62395 -1.29489,0.9258 -2.82415,1.16808 -4.19227,0.66418 z"
           id="path15520" />
      </g>
      <g
         id="g15566"
         style="fill:#e70bc7;fill-opacity:1">
        <path
           style="fill:#e70bc7;fill-opacity:1;stroke-width:1"
           d="m -172.66701,111.67753 c -4.3282,-2.27734 -4.33825,-8.26008 -0.0176,-10.45104 5.28753,-2.681243 10.83784,2.76246 8.1939,8.03651 -1.45537,2.90311 -5.16547,3.99873 -8.17634,2.41453 z"
           id="path15540" />
        <path
           style="fill:#e70bc7;fill-opacity:1;stroke-width:1"
           d="m -172.00605,141.73042 c -1.76118,-0.97168 -2.91702,-2.83193 -3.84549,-6.18908 -1.45265,-5.2525 -2.19987,-7.0367 -7.52868,-17.97683 -3.34251,-6.86222 -4.16122,-9.11156 -5.03824,-13.8421 -0.86953,-4.690153 -0.8211,-6.012483 0.24629,-6.725213 1.12886,-0.75375 2.93121,0.96409 3.99783,3.810393 1.08607,2.89821 3.69407,7.84638 5.0381,9.55881 3.18165,4.05375 7.23419,5.14967 11.42093,3.08855 2.66303,-1.31101 4.53317,-3.38209 8.59316,-9.51649 4.00747,-6.055023 4.5613,-6.696223 5.67357,-6.568673 1.28214,0.14704 1.55064,1.13499 1.19462,4.395603 -0.39361,3.60476 -1.59278,7.15022 -4.30433,12.72612 -2.7008,5.55378 -2.86174,6.01173 -4.75263,13.52404 -1.74314,6.92534 -2.87541,9.71512 -4.78863,11.79864 -0.6292,0.6852 -1.62025,1.46336 -2.20233,1.72924 -1.18571,0.5416 -2.9042,0.62835 -3.70417,0.18699 z"
           id="path15518" />
      </g>
      <g
         id="g15562"
         style="fill:#fed604;fill-opacity:1">
        <path
           style="fill:#fed604;fill-opacity:1;stroke-width:1"
           d="m -202.18886,117.70551 c -0.96088,-0.3888 -2.20609,-1.8528 -2.49802,-2.93694 -1.06305,-3.94786 3.17673,-7.06724 6.81779,-5.01613 2.82439,1.59106 2.88084,6.06605 0.0963,7.63107 -1.07556,0.6045 -3.3144,0.76775 -4.41604,0.322 z"
           id="path15536" />
        <path
           style="fill:#fed604;fill-opacity:1;stroke-width:1"
           d="m -187.08729,141.27002 c -0.72761,-0.4199 -2.22,-1.70994 -3.31643,-2.86673 -2.41767,-2.55077 -5.67756,-4.99871 -12.24767,-9.19712 -7.32039,-4.67785 -9.91858,-7.30318 -9.17173,-9.26756 0.56101,-1.47556 3.28993,-1.82844 7.09165,-0.91704 5.07091,1.21567 7.75121,0.23414 9.39766,-3.44144 0.425,-0.94877 0.56499,-1.98868 0.68914,-5.11934 0.14678,-3.70107 0.19153,-3.95765 0.77231,-4.42794 0.77655,-0.62881 1.34009,-0.36739 2.41914,1.1222 1.02443,1.41417 1.59934,3.00777 3.05296,8.46244 1.40146,5.25892 3.32298,10.12721 6.17357,15.6411 1.93569,3.74419 2.01856,3.97854 2.01856,5.70786 0,1.52456 -0.11254,1.97342 -0.7279,2.9033 -1.44345,2.1812 -3.84918,2.72884 -6.15126,1.40027 z"
           id="path15516" />
      </g>
      <g
         id="g40734">
        <path
           id="path15512"
           style="fill:#0166ff;fill-opacity:1;stroke-width:1"
           d="m -82.44459,168.09992 c 0,-0.21828 0.23148,-0.39687 0.51441,-0.39687 0.28293,0 0.81692,-0.2679 1.18664,-0.59532 0.68292,-0.60477 5.16253,-9.81824 7.8468,-16.13896 0.78779,-1.85505 1.56517,-3.37309 1.7275,-3.37343 0.16233,-2.7e-4 1.13576,1.81508 2.16317,4.03427 5.11905,11.05705 7.356,15.41032 8.09065,15.74505 1.09252,0.49779 2.46827,0.40802 3.07708,-0.20078 0.50629,-0.50629 0.52916,-0.88194 0.52916,-8.69024 0,-8.88693 0.0341,-8.68165 -1.52135,-9.15567 -1.63129,-0.49712 -0.16276,-0.67492 5.57437,-0.67492 7.156,0 8.40771,0.22717 9.99302,1.81366 2.28559,2.28729 1.58872,7.08968 -1.22337,8.43067 -0.50403,0.24035 -0.91642,0.51175 -0.91642,0.60309 0,0.0913 0.3682,0.51577 0.81821,0.94318 0.45001,0.42741 1.53143,1.87476 2.40316,3.21633 1.9229,2.95932 3.07215,4.04307 4.28746,4.04307 1.74352,0 1.75159,-0.0417 1.75159,-9.06117 0,-4.45141 -0.0701,-8.27604 -0.15569,-8.49919 -0.0856,-0.22314 -0.56188,-0.53977 -1.05833,-0.70361 -0.49646,-0.16385 -0.90265,-0.39616 -0.90265,-0.51625 0,-0.1201 3.12539,-0.27762 6.94531,-0.35006 3.81992,-0.0724 7.27274,-0.21695 7.67292,-0.32114 l 0.7276,-0.18944 v 2.80897 c 0,2.21318 -0.0775,2.80897 -0.36546,2.80897 -0.21003,0 -0.48776,-0.48568 -0.65302,-1.14198 -0.47168,-1.87322 -0.98527,-2.15115 -4.16796,-2.25554 l -2.75106,-0.0902 v 3.72825 3.72825 h 2.11667 c 2.36785,0 3.05265,-0.38044 3.34863,-1.86035 0.0864,-0.43201 0.32081,-0.78548 0.5209,-0.78548 0.29072,0 0.3638,0.71758 0.3638,3.57187 0,2.99861 -0.0637,3.57188 -0.39687,3.57188 -0.21828,0 -0.39688,-0.17299 -0.39688,-0.38443 0,-0.73237 -0.59047,-1.67523 -1.23225,-1.96765 -0.3546,-0.16156 -1.47256,-0.29375 -2.48436,-0.29375 h -1.83964 v 3.57187 3.57187 h 2.39179 c 1.86596,0 2.61878,-0.1158 3.42426,-0.52672 1.14364,-0.58344 2.22955,-1.85583 2.67542,-3.13485 0.2822,-0.80951 1.03332,-1.1769 1.03374,-0.50561 1.1e-4,0.1819 -0.25592,1.61674 -0.56897,3.18854 l -0.56917,2.85781 -10.74197,-0.0797 c -10.69395,-0.0793 -10.74678,-0.0824 -11.81696,-0.69591 -0.59125,-0.33892 -1.39383,-1.0158 -1.78352,-1.50417 -0.76517,-0.95897 -2.51412,-4.22536 -3.00783,-5.61754 -0.17125,-0.48287 -0.66143,-1.06193 -1.11989,-1.32291 -1.04055,-0.59236 -0.91555,-0.95482 0.39318,-1.1401 2.18046,-0.3087 3.1115,-1.48934 3.13782,-3.97904 0.0266,-2.51574 -0.93225,-3.55023 -3.58144,-3.86398 l -1.31968,-0.1563 0.0771,8.21285 c 0.0718,7.64388 0.11205,8.25141 0.58115,8.76941 0.27722,0.3061 0.78324,0.55655 1.12448,0.55655 0.37513,0 0.62045,0.15692 0.62045,0.39687 0,0.34563 -1.26412,0.39688 -9.78958,0.39688 -8.52546,0 -9.78958,-0.0513 -9.78958,-0.39688 0,-0.21828 0.22355,-0.39687 0.49677,-0.39687 0.27322,0 0.6493,-0.18379 0.83572,-0.40842 0.28047,-0.33794 0.2228,-0.69172 -0.33424,-2.05052 l -0.67319,-1.6421 -3.29462,-0.0737 -3.29461,-0.0737 -0.73503,1.72946 c -0.78365,1.84386 -0.67188,2.51904 0.41701,2.51904 0.27323,0 0.49677,0.17859 0.49677,0.39687 0,0.33243 -0.55856,0.39688 -3.43958,0.39688 -2.88102,0 -3.43958,-0.0645 -3.43958,-0.39688 z m 11.47154,-8.6651 c -0.51909,-1.20055 -1.06563,-2.52062 -1.21452,-2.93349 -0.28827,-0.79937 -0.33439,-0.71941 -2.45518,4.25641 l -0.36651,0.85989 h 2.49001 2.49 z" />
        <path
           style="fill:#0166ff;fill-opacity:1;stroke-width:1"
           d="m -94.8342,168.74164 c -7.16802,-0.93016 -11.48526,-6.21663 -10.75702,-13.17201 0.72213,-6.89701 5.52511,-10.70421 13.48934,-10.69265 3.05,0.004 4.4222,0.23369 6.86188,1.14649 l 1.47249,0.55093 v 3.0237 c 0,3.45872 -0.35501,3.95309 -1.18376,1.64841 -0.65995,-1.83525 -2.29146,-3.44534 -4.09978,-4.04597 -1.81502,-0.60285 -4.72218,-0.44915 -6.22583,0.32916 -3.92473,2.03149 -5.62077,8.15595 -3.84164,13.87228 0.73228,2.35283 1.991,3.89707 4.10622,5.03767 1.39569,0.7526 4.47727,0.81411 6.26298,0.125 2.24158,-0.86502 4.21521,-3.78254 4.64855,-6.8717 0.14541,-1.03659 0.49188,-1.47572 0.8535,-1.08174 0.11526,0.12556 0.27156,1.52606 0.34735,3.11221 l 0.13779,2.88391 -1.19686,1.27953 c -1.49258,1.59569 -3.47262,2.55052 -5.95865,2.87343 -2.18456,0.28374 -2.59834,0.28217 -4.91656,-0.0187 z"
           id="path15510" />
      </g>
      <g
         id="g15575"
         style="fill:#0166ff;fill-opacity:1">
        <path
           style="fill:#0166ff;fill-opacity:1;stroke-width:1"
           d="m -176.23938,172.55858 c -13.93536,-3.70688 -26.31906,-10.40619 -35.43461,-19.16936 l -3.02345,-2.90657 -0.53252,-2.30387 c -0.55861,-2.41673 -0.80691,-4.12834 -1.48981,-10.26954 -0.22826,-2.05279 -0.84039,-5.5056 -1.36029,-7.67292 -1.36186,-5.67727 -1.5255,-6.81997 -1.10339,-7.70474 0.23852,-0.49993 0.58845,-0.76111 1.09814,-0.81962 1.86032,-0.21358 4.25925,4.05646 6.73725,11.99213 2.3631,7.5677 3.99894,11.24875 6.94337,15.62427 2.46856,3.66834 5.08907,5.7785 8.53366,6.87168 2.58028,0.81888 4.64219,0.86496 5.51328,0.1232 l 0.62462,-0.53188 -0.96755,-0.85718 c -0.53215,-0.47144 -2.7311,-1.80967 -4.88655,-2.97384 -6.11745,-3.30406 -8.09362,-5.07664 -9.51622,-8.53584 -0.69468,-1.68919 -0.86447,-4.9218 -0.35489,-6.75682 0.56652,-2.04011 2.43241,-1.80898 3.86052,0.4782 2.45688,3.93483 3.49834,4.76944 10.23463,8.20182 7.73652,3.94204 10.30847,5.53865 12.1439,7.53868 2.71747,2.96116 4.73906,7.79339 5.47549,13.08811 0.3243,2.33163 0.37879,6.93357 0.0841,7.10325 -0.10914,0.0628 -1.27,-0.17078 -2.57969,-0.51916 z"
           id="path15508" />
        <path
           style="fill:#0166ff;fill-opacity:1;stroke-width:1"
           d="m -162.87792,174.97096 c -0.21828,-0.0435 -1.59826,-0.21924 -3.06663,-0.39061 -1.46836,-0.17137 -2.82338,-0.40654 -3.01116,-0.52259 -0.26597,-0.16438 -0.3112,-1.19668 -0.20468,-4.67192 0.1119,-3.6507 0.26167,-4.93768 0.82459,-7.08586 1.12937,-4.30981 2.97994,-7.68223 5.63352,-10.26634 1.44272,-1.40494 5.01931,-3.51581 11.50987,-6.79299 5.54635,-2.80044 7.57807,-4.2657 8.94196,-6.44882 1.43496,-2.2969 2.34465,-3.34617 3.05583,-3.52466 1.61786,-0.40606 2.37286,1.29026 2.18945,4.91921 -0.13912,2.75234 -0.93278,4.59438 -2.91315,6.76122 -1.68865,1.84766 -2.79783,2.60865 -7.59735,5.21244 -3.73517,2.02637 -5.30809,3.14532 -5.30809,3.77608 0,0.49176 1.24492,0.91901 2.67778,0.91901 1.67234,0 4.87975,-1.06299 6.66938,-2.21035 0.75266,-0.48254 2.03665,-1.6004 2.85331,-2.48414 3.85624,-4.17297 6.37512,-9.40502 10.03198,-20.8378 1.89964,-5.93903 4.15892,-9.65729 5.86793,-9.65729 1.60794,0 1.74714,1.84388 0.50932,6.74687 -1.01755,4.03047 -1.74848,8.22687 -2.28124,13.09688 -1.11704,10.21104 -3.98249,16.62771 -10.00901,22.4134 -2.74185,2.63229 -8.78069,6.67651 -13.8436,9.27109 l -3.74187,1.91759 -4.19563,-0.0307 c -2.3076,-0.0169 -4.37423,-0.0663 -4.59251,-0.10973 z"
           id="path15506" />
        <path
           style="fill:#0166ff;fill-opacity:1;stroke-width:1"
           d="m -162.48105,182.09579 c -9.05819,-0.69579 -14.58046,-1.74008 -21.59217,-4.08318 -16.47981,-5.50704 -29.99584,-14.95305 -37.65606,-26.31685 -4.63702,-6.87894 -6.7653,-13.03222 -6.7653,-19.55981 0,-6.03032 1.46541,-10.46375 5.01626,-15.17608 1.93652,-2.56995 3.67434,-4.18125 6.49311,-6.02038 3.02089,-1.97101 5.61956,-3.21394 9.11835,-4.36125 4.4479,-1.45853 11.65144,-2.59985 11.65144,-1.84603 0,0.14553 -0.16772,0.26459 -0.37272,0.26459 -0.205,0 -1.80772,0.41702 -3.56161,0.92671 -16.33042,4.74572 -24.96077,14.6828 -23.60173,27.17531 1.84696,16.97754 22.5421,34.46346 48.59613,41.06027 10.74251,2.71997 23.70104,2.9764 33.17951,0.65657 9.35028,-2.28846 17.07184,-7.914 20.13479,-14.66918 1.45877,-3.21725 1.89934,-5.39745 1.89482,-9.37677 -0.004,-3.1082 -0.10739,-3.96918 -0.80003,-6.63254 -0.43779,-1.68337 -1.16455,-3.9379 -1.61503,-5.01007 -0.86327,-2.05465 -0.87051,-2.68116 -0.0183,-1.5826 0.796,1.02609 3.0709,5.76423 3.68207,7.66896 3.0073,9.37244 0.75585,18.62533 -6.21686,25.54977 -5.71814,5.67855 -14.77297,9.65394 -24.66057,10.82686 -3.35858,0.3984 -10.60595,0.68238 -12.90611,0.5057 z"
           id="path15457-6" />
      </g>
    </g>
  </g>
</svg>
